<?xml version="1.0" encoding="utf-8"?>
<svg version="1.1" id="Layer_1" xmlns="http://www.w3.org/2000/svg" xmlns:xlink="http://www.w3.org/1999/xlink" x="0px" y="0px"
	 viewBox="0 0 77.3 58" enable-background="new 0 0 77.3 58" xml:space="preserve">
<g>
	<path fill="#186084" d="M15.1,43h47.2c1.3,0,2.3-1,2.3-2.3v-28c0-1.3-1-2.3-2.3-2.3H15.1c-1.3,0-2.3,1-2.3,2.3v28
		C12.7,42,13.8,43,15.1,43z M16.1,15c0-0.9,0.8-1.7,1.7-1.7h41.8c0.9,0,1.7,0.8,1.7,1.7v23.4c0,0.9-0.8,1.7-1.7,1.7H17.8
		c-0.9,0-1.7-0.8-1.7-1.7V15z"/>
	<path fill="#186084" d="M72,44.8H5.4c-0.8,0-1.5,0.7-1.5,1.5v1.3c0,0.8,0.7,1.5,1.5,1.5H72c0.8,0,1.5-0.7,1.5-1.5v-1.3
		C73.5,45.4,72.8,44.8,72,44.8z"/>
</g>
</svg>
