<?xml version="1.0" encoding="utf-8"?>

<svg version="1.1" id="Layer_1" xmlns="http://www.w3.org/2000/svg" xmlns:xlink="http://www.w3.org/1999/xlink" x="0px" y="0px"
	 viewBox="0 0 77.3 58" enable-background="new 0 0 77.3 58" xml:space="preserve">
<g>
	<path fill="#186084" d="M-632.8,93.6L-632.8,93.6c-0.1-0.1-0.1-0.1-0.2-0.2c-0.3-0.3-0.7-0.4-1.1-0.5c-15.2-6.7-30.5-6.7-45.8,0
		c-0.4,0.1-0.8,0.2-1.1,0.5c-0.1,0-0.1,0.1-0.2,0.1v0.1c-0.5,0.4-0.7,1.1-0.7,1.8v4.2c0,1.4,1.1,2.5,2.5,2.5h5.4
		c1.4,0,2.5-1.1,2.5-2.5v-2.9c9.7-2,19.4-2,29.3,0.1v2.8c0,1.4,1.1,2.5,2.5,2.5h5.4c1.4,0,2.5-1.1,2.5-2.5v-4.2
		C-632,94.7-632.3,94-632.8,93.6z"/>
	<circle fill="#186084" cx="-657" cy="109.6" r="1.9"/>
	<path fill="#186084" d="M-643,100.8h-2.8c0-0.2,0.1-0.3,0.1-0.5c0-1.1-0.9-2-2-2c-1.1,0-2,0.9-2,2c0,0.2,0,0.4,0.1,0.5h-15.9
		c0-0.2,0.1-0.3,0.1-0.5c0-1.1-0.9-2-2-2s-2,0.9-2,2c0,0.2,0,0.4,0.1,0.5h-2.2l-3.6,15.6h-4.8v8.3h6c0,1.1,0.9,2,2,2
		c1.1,0,2-0.9,2-2h25.5c0,1.1,0.9,2,2,2c1.1,0,2-0.9,2-2h6.2v-8.3h-4.8L-643,100.8z M-657,104c3.1,0,5.6,2.5,5.6,5.6
		c0,3.1-2.5,5.6-5.6,5.6s-5.6-2.5-5.6-5.6C-662.7,106.5-660.2,104-657,104z"/>
</g>
<path fill="#186084" d="M20.1,9.6v38.8h37.2V9.6H20.1z M46.7,41.6H30.6V38h16.2V41.6z M50.8,33.4H26.5v-2.5h24.4V33.4z M50.8,28
	H26.5v-2.5h24.4V28z M50.8,22.5H26.5v-2.5h24.4V22.5z M50.8,17.1H26.5v-2.5h24.4V17.1z"/>
<g>
	<path fill="#186084" d="M-759.1,226.3h47.2c1.3,0,2.3-1,2.3-2.3v-28c0-1.3-1-2.3-2.3-2.3h-47.2c-1.3,0-2.3,1-2.3,2.3v28
		C-761.5,225.2-760.4,226.3-759.1,226.3z M-758.1,198.2c0-0.9,0.8-1.7,1.7-1.7h41.8c0.9,0,1.7,0.8,1.7,1.7v23.4
		c0,0.9-0.8,1.7-1.7,1.7h-41.8c-0.9,0-1.7-0.8-1.7-1.7V198.2z"/>
	<path fill="#186084" d="M-702.2,228h-66.6c-0.8,0-1.5,0.7-1.5,1.5v1.3c0,0.8,0.7,1.5,1.5,1.5h66.6c0.8,0,1.5-0.7,1.5-1.5v-1.3
		C-700.7,228.7-701.4,228-702.2,228z"/>
</g>
</svg>
