<?xml version="1.0" encoding="utf-8"?>

<svg version="1.1" id="Layer_1" xmlns="http://www.w3.org/2000/svg" xmlns:xlink="http://www.w3.org/1999/xlink" x="0px" y="0px"
	 viewBox="0 0 77.3 58" enable-background="new 0 0 77.3 58" xml:space="preserve">
<g>
	<path fill="#186084" d="M62.9,15.3L62.9,15.3c-0.1-0.1-0.1-0.1-0.2-0.2c-0.3-0.3-0.7-0.4-1.1-0.5c-15.2-6.7-30.5-6.7-45.8,0
		c-0.4,0.1-0.8,0.2-1.1,0.5c-0.1,0-0.1,0.1-0.2,0.1v0.1c-0.5,0.4-0.7,1.1-0.7,1.8v4.2c0,1.4,1.1,2.5,2.5,2.5h5.4
		c1.4,0,2.5-1.1,2.5-2.5v-2.9c9.7-2,19.4-2,29.3,0.1v2.8c0,1.4,1.1,2.5,2.5,2.5h5.4c1.4,0,2.5-1.1,2.5-2.5V17
		C63.6,16.3,63.4,15.7,62.9,15.3z"/>
	<circle fill="#186084" cx="38.6" cy="31.3" r="1.9"/>
	<path fill="#186084" d="M52.7,22.5h-2.8c0-0.2,0.1-0.3,0.1-0.5c0-1.1-0.9-2-2-2c-1.1,0-2,0.9-2,2c0,0.2,0,0.4,0.1,0.5H30.2
		c0-0.2,0.1-0.3,0.1-0.5c0-1.1-0.9-2-2-2c-1.1,0-2,0.9-2,2c0,0.2,0,0.4,0.1,0.5h-2.2l-3.6,15.6h-4.8v8.3h6c0,1.1,0.9,2,2,2
		c1.1,0,2-0.9,2-2h25.5c0,1.1,0.9,2,2,2c1.1,0,2-0.9,2-2h6.2v-8.3h-4.8L52.7,22.5z M38.6,25.7c3.1,0,5.6,2.5,5.6,5.6
		c0,3.1-2.5,5.6-5.6,5.6c-3.1,0-5.6-2.5-5.6-5.6C33,28.2,35.5,25.7,38.6,25.7z"/>
</g>
<path fill="#186084" d="M-657,190.5v38.8h37.2v-38.8H-657z M-630.3,222.5h-16.2v-3.6h16.2V222.5z M-626.2,214.3h-24.4v-2.5h24.4
	V214.3z M-626.2,208.9h-24.4v-2.5h24.4V208.9z M-626.2,203.5h-24.4V201h24.4V203.5z M-626.2,198h-24.4v-2.5h24.4V198z"/>
<g>
	<path fill="#186084" d="M-759.1,226.3h47.2c1.3,0,2.3-1,2.3-2.3v-28c0-1.3-1-2.3-2.3-2.3h-47.2c-1.3,0-2.3,1-2.3,2.3v28
		C-761.5,225.2-760.4,226.3-759.1,226.3z M-758.1,198.2c0-0.9,0.8-1.7,1.7-1.7h41.8c0.9,0,1.7,0.8,1.7,1.7v23.4
		c0,0.9-0.8,1.7-1.7,1.7h-41.8c-0.9,0-1.7-0.8-1.7-1.7V198.2z"/>
	<path fill="#186084" d="M-702.2,228h-66.6c-0.8,0-1.5,0.7-1.5,1.5v1.3c0,0.8,0.7,1.5,1.5,1.5h66.6c0.8,0,1.5-0.7,1.5-1.5v-1.3
		C-700.7,228.7-701.4,228-702.2,228z"/>
</g>
</svg>
