<svg xmlns="http://www.w3.org/2000/svg" viewBox="0 0 77.3 58" enable-background="new 0 0 77.3 58"><g fill="#186084"><path d="M-632.8 93.6l-.2-.2c-.3-.3-.7-.4-1.1-.5-15.2-6.7-30.5-6.7-45.8 0-.4.1-.8.2-1.1.5-.1 0-.1.1-.2.1v.1c-.5.4-.7 1.1-.7 1.8v4.2c0 1.4 1.1 2.5 2.5 2.5h5.4c1.4 0 2.5-1.1 2.5-2.5v-2.9c9.7-2 19.4-2 29.3.1v2.8c0 1.4 1.1 2.5 2.5 2.5h5.4c1.4 0 2.5-1.1 2.5-2.5v-4.2c-.2-.7-.5-1.4-1-1.8z"/><circle cx="-657" cy="109.6" r="1.9"/><path d="M-643 100.8h-2.8c0-.2.1-.3.1-.5 0-1.1-.9-2-2-2s-2 .9-2 2c0 .2 0 .4.1.5h-15.9c0-.2.1-.3.1-.5 0-1.1-.9-2-2-2s-2 .9-2 2c0 .2 0 .4.1.5h-2.2l-3.6 15.6h-4.8v8.3h6c0 1.1.9 2 2 2s2-.9 2-2h25.5c0 1.1.9 2 2 2s2-.9 2-2h6.2v-8.3h-4.8l-4-15.6zm-14 3.2c3.1 0 5.6 2.5 5.6 5.6 0 3.1-2.5 5.6-5.6 5.6s-5.6-2.5-5.6-5.6c-.1-3.1 2.4-5.6 5.6-5.6z"/></g><path fill="#186084" d="M20.1 9.6v38.8h37.2V9.6H20.1zm26.6 32H30.6V38h16.2v3.6zm4.1-8.2H26.5v-2.5h24.4v2.5zm0-5.4H26.5v-2.5h24.4V28zm0-5.5H26.5V20h24.4v2.5zm0-5.4H26.5v-2.5h24.4v2.5z"/><g fill="#186084"><path d="M-759.1 226.3h47.2c1.3 0 2.3-1 2.3-2.3v-28c0-1.3-1-2.3-2.3-2.3h-47.2c-1.3 0-2.3 1-2.3 2.3v28c-.1 1.2 1 2.3 2.3 2.3zm1-28.1c0-.9.8-1.7 1.7-1.7h41.8c.9 0 1.7.8 1.7 1.7v23.4c0 .9-.8 1.7-1.7 1.7h-41.8c-.9 0-1.7-.8-1.7-1.7v-23.4zM-702.2 228h-66.6c-.8 0-1.5.7-1.5 1.5v1.3c0 .8.7 1.5 1.5 1.5h66.6c.8 0 1.5-.7 1.5-1.5v-1.3c0-.8-.7-1.5-1.5-1.5z"/></g></svg>